<svg width="84" height="84" viewBox="0 0 84 84" fill="none" xmlns="http://www.w3.org/2000/svg">
<g transform="translate(9.6516, 1.1592)">
<path d="M19.3623 0.129883C19.6674 0.133696 20.1143 0.178956 20.7061 0.266602C20.9722 0.306522 21.4234 0.377614 22.0586 0.480469C25.6413 1.0615 29.1204 1.6161 32.4951 2.14453C34.8361 2.51114 36.8847 2.83907 38.6406 3.12793C41.2999 3.56644 43.8435 3.93632 46.8379 4.42383C51.6609 5.20895 54.9919 5.73893 56.8301 6.01465C58.0234 6.19403 59.128 6.6055 60.1445 7.25L60.5742 7.54102C61.2193 8.00262 61.9349 8.6009 62.4805 9.28516C63.7827 10.9189 64.5024 12.6792 64.6455 14.5674C64.7136 15.462 64.6504 16.4324 64.4551 17.4785C64.335 18.1223 64.2476 18.6157 64.1924 18.958C63.6609 22.238 63.2966 24.4581 63.0996 25.6182C62.9812 26.3124 62.7832 27.4249 62.5068 28.9551C62.4011 29.5392 62.2986 30.193 62.1953 30.8506C62.0919 31.5089 61.9875 32.1712 61.8789 32.7754L61.6113 34.3037C61.3894 35.8305 61.0832 37.688 60.6924 39.876C60.4198 41.4009 59.8654 44.686 59.0293 49.7295C58.9501 50.2076 58.8753 50.6318 58.8057 51.002V51.0029C58.7504 51.3018 58.7103 51.5859 58.6689 51.8643C58.6275 52.1435 58.5843 52.4184 58.5234 52.7031C58.4177 53.1996 58.3323 53.7401 58.252 54.2764C58.1714 54.8139 58.0957 55.3472 58.0078 55.8369C57.8421 56.7608 57.6587 57.8913 57.4639 59.0762C57.3664 59.6689 57.2662 60.2754 57.1641 60.877L56.8525 62.6484C56.7659 63.1208 56.6847 63.6087 56.6084 64.1123C56.4019 65.4654 56.1741 66.8031 55.9561 68.0703C55.8471 68.7035 55.7409 69.3195 55.6406 69.9111L55.3623 71.6064C55.153 72.9487 54.9364 73.9271 54.7139 74.5479C53.801 77.0972 52.0724 78.9753 49.5205 80.1846C48.3018 80.7614 47.0123 81.0563 45.6514 81.0703C45.0947 81.0757 43.8716 80.9252 41.9697 80.6123C38.237 79.9983 35.061 79.4781 32.4424 79.0518C25.786 77.9679 19.9285 77.0883 13.832 76.0332C12.6282 75.8257 10.6856 75.5523 9.01172 75.2949C7.87049 75.1197 6.98336 74.9082 6.34668 74.6611C5.43934 74.3078 4.57787 73.8179 3.7627 73.1914C3.10998 72.6896 2.46589 71.9896 1.83203 71.0879C0.833247 69.6664 0.275112 68.0663 0.157227 66.2852C0.117395 65.6822 0.120333 65.2222 0.164063 64.9014C0.282274 64.0347 0.460144 62.9494 0.696289 61.6455C0.763303 61.2757 0.803189 60.9856 0.81543 60.7783C0.826049 60.5997 0.855979 60.4362 0.893555 60.2588L1.01367 59.6641C1.11337 59.0761 1.43539 57.2005 1.97949 54.0371C2.6098 50.3691 2.98903 48.1419 3.11719 47.3564C3.19804 46.8587 3.28143 46.3519 3.36621 45.8369C4.23925 40.5398 5.00191 35.9909 5.6543 32.1904C6.1434 29.3398 6.46834 27.397 6.62793 26.3633V26.3623C6.63649 26.3066 6.65952 26.2245 6.68652 26.1074C6.71137 25.9997 6.73695 25.8708 6.73633 25.7529L6.7627 25.5352C7.27547 22.5857 7.82653 19.3073 8.41699 15.7002C8.7728 13.5217 9.16934 11.3752 9.50684 9.375C9.75574 7.89648 9.99117 6.87955 10.2119 6.31543C10.6657 5.15408 11.3378 4.10747 12.2285 3.1748C14.101 1.2151 16.6605 0.0927352 19.3623 0.129883ZM19.2793 2.22266C16.1493 2.24906 13.5058 4.0195 12.249 6.8623C12.0469 7.31936 11.8625 8.03509 11.6934 9.00098C11.0355 12.7566 10.6185 15.193 10.4424 16.3086C10.1564 18.1235 9.88021 19.7355 9.59375 21.4053C9.30728 23.0751 9.01016 24.8037 8.68262 26.8496C8.36081 28.855 8.02506 30.8647 7.67578 32.8779C7.65285 33.0108 7.55309 33.6139 7.375 34.6855C6.86468 37.7522 6.47794 40.0281 6.21582 41.5137C6.02176 42.6105 5.83518 43.7238 5.65527 44.8535C5.36389 46.678 5.17814 47.7869 5.09863 48.1846C4.82575 49.549 4.66363 50.9038 4.40918 52.3418C4.23088 53.3488 4.05386 54.3875 3.87793 55.458C3.65658 56.8057 3.42941 58.1546 3.19629 59.5039C2.91521 61.1307 2.67308 62.5313 2.46973 63.7051C2.34863 64.4034 2.28065 64.9327 2.26855 65.2891C2.16206 68.4331 3.91476 71.354 6.85156 72.5488C7.59246 72.8512 8.25522 73.0487 8.83887 73.1387C11.381 73.5328 13.4502 73.8605 15.0459 74.1211C18.3186 74.6549 20.3872 74.9883 21.251 75.1211C25.9335 75.8421 32.0658 76.8988 36.7217 77.5898C37.2803 77.6731 37.878 77.7803 38.4795 77.8896C39.0804 77.9989 39.6857 78.11 40.2559 78.1992C41.6311 78.4135 42.9075 78.6179 44.084 78.8125C44.7256 78.919 45.2477 78.9683 45.6475 78.957H45.6484C46.16 78.9419 46.6803 78.8806 47.209 78.7725C48.4463 78.5209 49.7764 77.7678 50.6797 76.9424H50.6807C52.1256 75.6209 52.8268 74.0316 53.1484 72.1631V72.1621C53.5552 69.7936 54.3553 65.0279 55.5479 57.8662C55.8967 55.774 56.0798 54.6762 56.0967 54.5732L56.5469 51.9883C56.6384 51.5164 56.6796 51.0731 56.7725 50.5088C57.1273 48.3571 57.5194 46.0395 57.9473 43.5557C58.4726 40.5052 58.8617 38.1866 59.1162 36.6006C59.4954 34.2377 59.8423 32.1444 60.1563 30.3203C60.2456 29.7983 60.343 29.265 60.4473 28.7217L60.7256 27.1152C60.7635 26.893 61.3391 23.3855 62.4521 16.5947C62.8112 14.4049 62.3077 12.4551 60.9424 10.7559C60.0241 9.61275 58.8967 8.80856 57.5625 8.3457C57.1532 8.20389 56.4363 8.05964 55.4209 7.91211C55.2836 7.89183 54.5712 7.77922 53.2822 7.57422C39.261 5.33833 29.7928 3.82481 24.8779 3.03223L21.4805 2.47949C20.4323 2.3061 19.6955 2.21942 19.2793 2.22266Z" fill="currentColor" stroke="currentColor" stroke-width="0.258429"/>
</g>
<g transform="translate(18.27, 8.6016)">
<path d="M35.0337 21.1528C35.3423 21.2093 35.6085 21.4602 35.9335 21.6427C37.4002 22.4695 38.9992 23.1663 40.7304 23.7332C42.6321 24.3558 44.5667 24.8155 46.5343 25.1123C46.6827 25.1343 46.8339 25.1457 46.9878 25.1465C47.014 25.1466 47.04 25.1418 47.0643 25.1324C47.0886 25.1229 47.1107 25.109 47.1293 25.0914C47.1479 25.0737 47.1627 25.0528 47.1727 25.0297C47.1828 25.0066 47.188 24.9819 47.188 24.9569C47.188 24.8744 47.1413 24.7947 47.0478 24.7178C45.8736 23.7615 44.5899 22.7298 43.4628 22.0102C42.6431 21.4865 41.7178 20.9624 40.6869 20.4379C39.1876 19.6747 37.7001 19.186 36.1184 18.7314C36.1077 18.7282 36.098 18.7222 36.0906 18.7138C36.0831 18.7055 36.0781 18.6952 36.0761 18.6842C36.0742 18.6732 36.0753 18.6618 36.0795 18.6514C36.0836 18.641 36.0906 18.632 36.0996 18.6254C36.1467 18.5924 36.2028 18.5708 36.268 18.5606C38.3 18.2457 40.2464 17.7083 42.1072 16.9483C43.504 16.3782 44.5408 15.9142 45.2176 15.5562C46.2093 15.0333 47.6025 14.199 49.3974 13.0535C49.5246 12.9718 49.6349 12.88 49.7283 12.7779C49.7602 12.7434 49.7791 12.6992 49.7815 12.6535C49.7839 12.6078 49.7696 12.5637 49.7413 12.5294C49.6706 12.443 49.5693 12.405 49.4374 12.4152C47.4785 12.5667 45.6922 12.7736 44.0787 13.0358C41.1595 13.5085 38.4001 14.4566 35.8005 15.8801C35.7925 15.8844 35.7835 15.8864 35.7744 15.8858C35.7653 15.8853 35.7566 15.8822 35.7492 15.8769C35.7419 15.8716 35.7361 15.8644 35.7327 15.856C35.7292 15.8476 35.7282 15.8384 35.7298 15.8294C35.7369 15.7909 35.7612 15.7423 35.8028 15.6834C36.3964 14.8495 36.9063 14.1712 37.4163 13.3385C38.9277 10.87 40.076 8.21105 40.8612 5.36171C40.8674 5.33894 40.868 5.31499 40.863 5.29194C40.858 5.26889 40.8475 5.24741 40.8324 5.22935C40.8174 5.21129 40.7982 5.19718 40.7765 5.18824C40.7549 5.17929 40.7314 5.17577 40.7081 5.17798C40.6256 5.18583 40.5585 5.21057 40.5067 5.25218C38.795 6.64897 37.2506 8.23538 35.8735 10.0114C34.0421 12.3716 32.7348 14.9449 32.2637 17.8857C32.2182 18.17 32.1075 18.4036 31.9316 18.5865C31.1731 19.3732 30.5081 20.1125 29.9365 20.8042C29.9289 20.8134 29.9188 20.8201 29.9074 20.8238C29.896 20.8274 29.8838 20.8276 29.8723 20.8245C29.8608 20.8214 29.8504 20.8151 29.8424 20.8063C29.8343 20.7974 29.829 20.7865 29.827 20.7747C29.8152 20.6986 29.8128 20.6098 29.8199 20.5086C29.9016 19.323 30.1171 17.5344 30.4665 15.1428C30.6636 13.7931 31.0055 12.0246 31.4923 9.83711C32.4172 5.67577 33.01 3.02587 33.2707 1.88739C33.3154 1.69189 33.3197 1.56391 33.2836 1.50345C33.074 1.14895 32.5122 1.10184 32.0352 1.01234C31.3843 0.888281 29.8537 0.642919 27.4432 0.276251C26.9062 0.194595 26.6019 0.392845 26.5305 0.871006C26.2973 2.42326 26.1784 3.23747 26.1736 3.31363C26.1501 3.69129 26.0747 4.19065 25.9475 4.81171C25.8996 5.0449 25.8085 5.54151 25.6743 6.30154C25.266 8.62561 24.8247 10.9375 24.3505 13.2372C24.1939 13.998 23.9513 14.7742 23.7934 15.5503C23.6015 16.496 23.3117 17.4029 22.9808 18.464C22.8795 18.7899 22.6636 19.3391 22.333 20.1117C22.1454 20.5521 22.0551 20.8823 22.0622 21.1021C22.0728 21.4025 22.1917 21.9937 22.6145 21.9807C23.8747 21.9407 25.3021 22.155 26.7331 22.6167C27.519 22.8711 28.3214 23.0733 29.1404 23.2232C29.3751 23.2656 29.5675 23.1891 29.7174 22.9936C30.0496 22.5602 30.3464 21.9902 30.7327 21.4884C31.1731 20.9161 31.6148 20.4053 32.0576 19.9562C32.0698 19.9436 32.0854 19.9348 32.1025 19.9311C32.1196 19.9274 32.1375 19.9288 32.1539 19.9352C32.1703 19.9415 32.1845 19.9526 32.1949 19.9671C32.2052 19.9815 32.2111 19.9986 32.2119 20.0163C32.3332 22.6744 33.2459 25.1536 34.5273 27.4808C35.6399 29.4994 36.8655 31.3111 38.2042 32.916C38.2631 32.9859 38.3181 33.0314 38.3691 33.0526C38.3994 33.0652 38.4326 33.0698 38.4652 33.0659C38.4979 33.0619 38.5289 33.0496 38.5553 33.0301C38.5816 33.0106 38.6024 32.9847 38.6156 32.9547C38.6288 32.9248 38.634 32.892 38.6306 32.8595C38.4115 30.6822 37.9298 28.4457 37.1855 26.1499C37.0002 25.5775 36.7689 24.9765 36.4918 24.3468C35.8852 22.9689 35.5201 22.1056 34.989 21.2176C34.9849 21.2104 34.9829 21.2023 34.9832 21.194C34.9835 21.1858 34.9862 21.1778 34.9909 21.171C34.9956 21.1642 35.0021 21.1589 35.0097 21.1557C35.0173 21.1525 35.0256 21.1515 35.0337 21.1528Z" fill="currentColor" stroke="currentColor" stroke-width="0.516858"/>
<path d="M12.7486 41.3815C12.7595 41.3843 12.7696 41.39 12.7777 41.3979C12.7857 41.4058 12.7916 41.4156 12.7946 41.4264C12.7976 41.4372 12.7976 41.4486 12.7947 41.4593C12.7918 41.47 12.7861 41.4798 12.778 41.4875C12.539 41.7277 12.1209 41.9386 11.7805 42.1988C10.7088 43.0162 9.84588 43.7586 9.19184 44.4259C8.12324 45.5157 7.39972 46.2848 7.02128 46.7331C6.25889 47.6368 5.54361 48.5786 4.87544 49.5585C4.69878 49.8168 4.54214 50.074 4.40552 50.3299C4.39031 50.3585 4.38255 50.3904 4.38296 50.4227C4.38337 50.4551 4.39194 50.4868 4.40788 50.5151C4.42383 50.5433 4.44663 50.5672 4.4742 50.5844C4.50177 50.6016 4.53323 50.6117 4.5657 50.6138C4.63322 50.6177 4.71488 50.5981 4.81066 50.5549C7.81389 49.1805 10.4497 47.5234 12.8617 45.3881C13.3057 44.9948 13.6578 44.572 14.1383 44.0691C14.8002 43.3766 15.2183 42.6923 15.793 41.7419C15.8007 41.7288 15.8116 41.718 15.8247 41.7104C15.8378 41.7028 15.8526 41.6986 15.8678 41.6984C15.8829 41.6982 15.8978 41.7018 15.9111 41.709C15.9245 41.7162 15.9357 41.7267 15.9438 41.7395C16.0207 41.8628 16.0883 42.0049 16.1464 42.1659C16.6237 43.492 16.9088 44.8762 17.0014 46.3186C17.0032 46.3451 17.0118 46.3707 17.0264 46.393C17.0411 46.4153 17.0613 46.4335 17.085 46.4457L17.4466 46.633C17.4998 46.6604 17.5563 46.6817 17.615 46.6966C18.1414 46.8297 18.576 47.0652 19.0613 47.1995C20.5287 47.6046 21.9228 47.8779 23.2434 48.0192C23.7114 48.0687 24.0227 48.0655 24.1773 48.0098C24.6908 47.8237 24.9366 47.4492 24.9146 46.8862C24.8714 45.7697 24.9146 44.7384 25.0442 43.7923C25.3574 41.4957 25.7834 38.8867 26.322 35.9651C26.7735 33.5099 27.4405 30.6959 28.323 27.5231C28.4502 27.0649 28.7352 26.3607 28.9236 25.939C29.1552 25.4216 29.2604 25.0294 29.2392 24.7625C29.2094 24.377 28.9248 24.1147 28.3854 23.9757C26.1139 23.3916 24.164 23.039 22.5356 22.9181C22.516 22.9166 22.4967 22.917 22.4779 22.9193C21.7587 23.008 21.434 23.4195 21.5039 24.1536C21.5824 24.9843 21.6083 25.5951 21.5816 25.9861C21.4674 27.6255 21.0399 29.5641 20.7914 31.1034C20.2198 34.6594 19.4656 38.2385 18.5289 41.8408C18.3797 42.4124 18.2039 43.0299 18.0013 43.6934C17.9722 43.7884 17.9346 43.8716 17.8882 43.9431C17.8816 43.9536 17.8721 43.962 17.8607 43.9672C17.8494 43.9724 17.8368 43.9742 17.8243 43.9723C17.8119 43.9705 17.8002 43.965 17.7907 43.9567C17.7811 43.9484 17.7741 43.9375 17.7705 43.9254C17.3826 42.6087 17.012 41.4683 16.6587 40.5041C16.4432 39.9164 16.6834 39.3664 16.853 38.7257C17.3394 36.8955 17.3712 34.8721 17.1192 33.0278C16.7423 30.2648 15.9332 27.4591 14.6919 24.6105C14.6361 24.4826 14.5655 24.3974 14.4799 24.355C14.4565 24.3436 14.4308 24.3378 14.4048 24.3379C14.3788 24.3381 14.3532 24.3442 14.3301 24.3558C14.3069 24.3675 14.2868 24.3843 14.2713 24.405C14.2558 24.4257 14.2454 24.4497 14.2408 24.4751C13.8576 26.5503 13.6916 28.6486 13.7426 30.7701C13.7717 31.9415 13.8588 33.1468 14.0041 34.3857C14.0363 34.6605 14.1238 35.1222 14.2667 35.7708C14.2871 35.8642 14.2977 35.9651 14.2985 36.0734C14.2984 36.088 14.2937 36.1023 14.285 36.1141C14.2763 36.1259 14.2642 36.1347 14.2503 36.139C14.2364 36.1434 14.2216 36.1431 14.208 36.1383C14.1944 36.1335 14.1828 36.1244 14.1748 36.1123C13.3434 34.8981 12.4247 33.8416 11.3 32.7605C10.0115 31.5207 8.63359 30.3968 7.16613 29.3886C6.38333 28.8516 5.20913 28.1222 3.64353 27.2004C3.5446 27.1415 3.32436 27.0708 3.21366 27.0496C3.18337 27.044 3.15211 27.0471 3.12348 27.0584C3.09485 27.0698 3.07 27.089 3.0518 27.1138C3.03359 27.1387 3.02277 27.1682 3.02057 27.1989C3.01836 27.2296 3.02487 27.2603 3.03935 27.2875C3.63607 28.3938 4.2799 29.4385 4.97084 30.4215C5.74265 31.5223 6.32052 32.3086 6.70446 32.7805C7.00911 33.155 7.46096 33.6905 8.06004 34.3869C8.44044 34.8286 8.97631 35.3421 9.40736 35.7967C9.62407 36.0259 9.92753 36.3086 10.3178 36.6446C11.2254 37.4251 12.0447 38.0827 12.7757 38.6173C12.7865 38.6255 12.7944 38.6371 12.798 38.6501C12.8017 38.6632 12.8011 38.6771 12.7961 38.6897C12.7912 38.7024 12.7823 38.7131 12.7707 38.7202C12.7592 38.7273 12.7456 38.7305 12.7321 38.7292C12.1739 38.6656 11.6898 38.5243 11.1057 38.4654C9.11372 38.2628 7.40208 38.2318 5.97073 38.3724C4.18293 38.5482 2.42065 38.8494 0.683879 39.2757C0.582594 39.3008 0.48131 39.3358 0.380025 39.3805C0.342633 39.3967 0.311011 39.4237 0.289333 39.4582C0.267655 39.4927 0.256938 39.5329 0.258596 39.5736C0.260254 39.6143 0.274213 39.6536 0.298624 39.6861C0.323036 39.7187 0.356755 39.7432 0.395336 39.7562C2.82932 40.6003 5.37637 41.1495 8.03648 41.4039C9.53064 41.5468 11.0319 41.533 12.5401 41.3626C12.6006 41.3564 12.6701 41.3626 12.7486 41.3815Z" fill="currentColor" stroke="currentColor" stroke-width="0.516858"/>
<path d="M17.2206 47.3268C17.1852 47.4316 17.1287 47.5317 17.0757 47.5906C16.8292 47.8639 16.6725 48.1834 16.6058 48.5493C16.6003 48.5838 16.598 48.6181 16.5987 48.6518C16.6529 50.4537 16.6647 51.4925 16.382 52.9646C16.3078 53.3521 16.289 53.8326 16.2207 54.1965C15.8383 56.2238 15.3896 58.5498 14.8745 61.1746C14.6225 62.4619 14.3469 63.5313 14.1114 64.7067C14.0297 65.1126 14.1844 65.3662 14.5754 65.4675C14.8894 65.5483 15.114 65.6002 15.249 65.6229C18.1007 66.0956 19.6365 66.3551 19.8563 66.4014C20.11 66.454 20.2937 66.4356 20.4075 66.3461C20.5897 66.2032 20.6921 66.045 20.7149 65.8714C21.0353 63.4602 21.4483 60.9791 21.9539 58.4281C22.2495 56.9371 22.7029 55.1234 23.0056 53.8468C23.3212 52.5183 23.6699 51.4772 24.2446 50.2865C24.4495 49.8609 24.4118 49.486 24.1315 49.1617C24.1059 49.1314 24.0746 49.1066 24.0397 49.0887C23.8599 48.9921 23.6483 48.9399 23.4049 48.9321C21.7054 48.8767 19.94 48.4468 18.3901 47.9616C18.0297 47.8493 17.7023 47.6801 17.4078 47.454C17.3764 47.4305 17.3572 47.4061 17.3501 47.381C17.3391 47.3409 17.3274 47.315 17.3148 47.3033C17.3078 47.2966 17.2992 47.2919 17.2898 47.2894C17.2805 47.287 17.2706 47.287 17.2613 47.2893C17.2519 47.2916 17.2432 47.2963 17.2361 47.3029C17.229 47.3094 17.2237 47.3177 17.2206 47.3268Z" fill="currentColor" stroke="currentColor" stroke-width="0.516858"/>
</g>
<g transform="translate(40.0764, 8.6016)">
<path d="M5.3623 0.145508C7.77329 0.512261 9.3012 0.757354 9.94922 0.880859C10.198 0.927536 10.4434 0.959671 10.6611 1.02441C10.8774 1.08875 11.0308 1.17626 11.1104 1.31055L11.1113 1.31152C11.1124 1.3148 11.1178 1.33391 11.1162 1.38184C11.1144 1.43433 11.1045 1.50691 11.083 1.60059C10.8222 2.73976 10.2295 5.39004 9.30469 9.55078C8.81758 11.7396 8.4741 13.512 8.27637 14.8662C7.9706 16.9592 7.76709 18.5932 7.66602 19.7666L7.62891 20.2412C7.62137 20.3492 7.62407 20.448 7.6377 20.5361V20.5381C7.64383 20.5741 7.66004 20.6077 7.68457 20.6348C7.70923 20.6619 7.74194 20.6819 7.77734 20.6914C7.81261 20.7008 7.84999 20.6995 7.88477 20.6885C7.91964 20.6774 7.9502 20.6561 7.97363 20.6279H7.97461C8.40145 20.1114 8.88079 19.5677 9.41309 18.9971L9.96289 18.418C10.1594 18.2136 10.28 17.9541 10.3291 17.6475C10.796 14.7332 12.0925 12.1795 13.9141 9.83203C15.285 8.06408 16.822 6.48495 18.5254 5.09473C18.5532 5.07243 18.5949 5.05393 18.6582 5.04785C18.6604 5.04765 18.663 5.04805 18.665 5.04883C18.6672 5.04971 18.6693 5.05182 18.6709 5.05371C18.6725 5.05562 18.6742 5.05793 18.6748 5.06055V5.06934C17.8928 7.90713 16.7491 10.5548 15.2441 13.0127C14.7373 13.8402 14.2314 14.5128 13.6357 15.3496V15.3506C13.5909 15.414 13.5532 15.4813 13.541 15.5479V15.5488C13.5353 15.5817 13.5391 15.6156 13.5518 15.6465C13.5644 15.6773 13.5852 15.7042 13.6123 15.7236C13.6394 15.743 13.6718 15.7548 13.7051 15.7568C13.7382 15.7588 13.7716 15.7512 13.8008 15.7354C16.3876 14.3189 19.1334 13.3756 22.0381 12.9053C23.6473 12.6437 25.4298 12.4365 27.3857 12.2852C27.4841 12.2776 27.5404 12.3055 27.5791 12.3525L27.5801 12.3535C27.587 12.3621 27.5916 12.3744 27.5908 12.3887C27.59 12.4033 27.5832 12.4187 27.5713 12.4316V12.4326C27.4861 12.5257 27.3842 12.6104 27.2656 12.6865C25.4719 13.8313 24.0825 14.6633 23.0957 15.1836C22.4248 15.5385 21.3927 16.0007 19.9971 16.5703H19.9961C18.3763 17.2319 16.6911 17.7243 14.9404 18.0469L14.1865 18.1748C14.1049 18.1876 14.0293 18.215 13.9639 18.2607L13.9609 18.2627C13.9326 18.2836 13.9105 18.3121 13.8975 18.3447C13.8844 18.3774 13.8806 18.4136 13.8867 18.4482C13.8929 18.483 13.9091 18.5158 13.9326 18.542C13.9443 18.555 13.958 18.5659 13.9727 18.5752L14.0205 18.5967C15.5995 19.0505 17.0781 19.5373 18.5664 20.2949C19.594 20.8177 20.5156 21.3394 21.3311 21.8604C22.1709 22.3966 23.1 23.1088 24.0078 23.835L24.9043 24.5596C24.9817 24.6234 24.997 24.6698 24.9971 24.6982C24.9971 24.7053 24.9952 24.7128 24.9922 24.7197C24.9892 24.7266 24.9847 24.7334 24.9785 24.7393C24.9723 24.7451 24.9649 24.7504 24.9561 24.7539C24.9471 24.7574 24.9368 24.7588 24.9268 24.7588C24.7791 24.758 24.6341 24.7476 24.4922 24.7266C22.5317 24.4309 20.6038 23.972 18.709 23.3516C16.9852 22.7871 15.3942 22.0937 13.9355 21.2715H13.9346C13.7754 21.182 13.6415 21.0826 13.4854 20.9834C13.3365 20.8888 13.1749 20.8005 12.9951 20.7676L12.9932 20.7666L12.9443 20.7656L12.8975 20.7783C12.8823 20.7848 12.8681 20.7934 12.8555 20.8037L12.8232 20.8389C12.8139 20.8524 12.8059 20.8674 12.8008 20.8828L12.792 20.9307C12.7907 20.9631 12.7992 20.9952 12.8154 21.0234L12.8164 21.0254C13.3424 21.9048 13.7036 22.7594 14.3115 24.1406C14.5872 24.7669 14.8172 25.364 15.001 25.9316C15.65 27.9336 16.0977 29.8893 16.3457 31.7988L16.4404 32.6143C16.4415 32.6243 16.4397 32.6352 16.4355 32.6445C16.4315 32.6537 16.4252 32.6619 16.417 32.668C16.4086 32.6741 16.3982 32.6774 16.3877 32.6787C16.3772 32.6799 16.3662 32.6789 16.3564 32.6748C16.333 32.6649 16.2942 32.6371 16.2412 32.5742H16.2402C14.9077 30.9766 13.6878 29.1717 12.5791 27.1602C11.3833 24.9883 10.5134 22.6907 10.3105 20.2432L10.2793 19.752L10.2676 19.6895L10.2383 19.6338L10.1943 19.5879L10.1387 19.5566L10.0771 19.542L10.0127 19.5469C9.99173 19.5515 9.97165 19.5589 9.95313 19.5693L9.90234 19.6084C9.45579 20.0614 9.01114 20.576 8.56836 21.1514C8.37112 21.4076 8.19788 21.6805 8.03418 21.9395C7.86917 22.2004 7.71448 22.4452 7.55273 22.6563C7.48931 22.7389 7.42218 22.7912 7.35156 22.8193C7.29875 22.8404 7.23917 22.8495 7.17188 22.8457L7.10156 22.8379C6.4917 22.7262 5.89118 22.585 5.2998 22.415L4.71094 22.2354C3.268 21.7698 1.82581 21.5522 0.548828 21.5928C0.41412 21.5969 0.314114 21.5106 0.239258 21.3467C0.183565 21.2246 0.152874 21.0792 0.138672 20.9551L0.129883 20.8389C0.124024 20.6495 0.202922 20.3416 0.389648 19.9033C0.719946 19.1313 0.938503 18.577 1.04199 18.2441C1.37228 17.1851 1.66483 16.271 1.8584 15.3174C1.89741 15.1256 1.94127 14.9335 1.98828 14.7412L2.2832 13.583C2.33074 13.3899 2.37549 13.197 2.41504 13.0049C2.88953 10.7039 3.33173 8.39074 3.74023 6.06543L3.73926 6.06445C3.87349 5.30463 3.96525 4.81011 4.0127 4.5791C4.14037 3.9557 4.21711 3.44974 4.24121 3.06348V3.05859C4.24149 3.05566 4.24165 3.05164 4.24219 3.04688C4.24327 3.03729 4.24505 3.02459 4.24707 3.00879C4.25113 2.97697 4.25698 2.93318 4.26465 2.87793C4.28004 2.76712 4.30232 2.60962 4.33203 2.40625C4.39147 1.99941 4.48009 1.40792 4.59668 0.631836C4.62885 0.416537 4.70949 0.286714 4.82129 0.213867C4.93632 0.138933 5.11005 0.107153 5.3623 0.145508Z" fill="currentColor" stroke="currentColor" stroke-width="0.258429"/>
</g>
<g transform="translate(18.27, 31.2648)">
<path d="M22.2354 0.129883H22.2676C23.6835 0.23502 25.3473 0.516278 27.2598 0.975586L28.0947 1.18359C28.3521 1.24989 28.536 1.3425 28.6572 1.4541C28.7459 1.53583 28.8043 1.63061 28.833 1.74023L28.8516 1.85547C28.87 2.08755 28.7774 2.45371 28.5469 2.96875C28.405 3.2862 28.2082 3.76633 28.0635 4.18359L27.9404 4.57129C27.0572 7.74668 26.3889 10.5645 25.9365 13.0244C25.3976 15.9474 24.9708 18.5584 24.6572 20.8574C24.5265 21.812 24.4839 22.851 24.5273 23.9736C24.5376 24.2352 24.4846 24.442 24.3799 24.6016C24.3016 24.7207 24.1897 24.8208 24.0391 24.8994L23.875 24.9707C23.8186 24.991 23.7199 25.0063 23.5684 25.0078C23.4196 25.0093 23.2301 24.998 22.999 24.9736C21.6863 24.8331 20.2986 24.5617 18.8369 24.1582C18.6023 24.0933 18.3795 24.0032 18.1426 23.9102C17.9076 23.8179 17.6605 23.723 17.3887 23.6543C17.3394 23.6418 17.2915 23.6234 17.2471 23.6006H17.2461L16.8857 23.4141C16.8817 23.412 16.8784 23.4088 16.876 23.4053L16.8721 23.3926C16.7903 22.1202 16.5596 20.8923 16.1807 19.709L16.0098 19.2051L15.9102 18.9658C15.8745 18.8907 15.8362 18.82 15.7949 18.7539V18.7529L15.7588 18.7109C15.7453 18.6983 15.7303 18.6866 15.7139 18.6777C15.6975 18.6689 15.68 18.6626 15.6621 18.6582L15.6074 18.6523C15.5889 18.6526 15.5705 18.6552 15.5527 18.6602L15.501 18.6816C15.4693 18.7001 15.4427 18.7263 15.4238 18.7578C14.8484 19.7093 14.4368 20.3817 13.7861 21.0625C13.42 21.4457 13.1362 21.7733 12.832 22.0771L12.5176 22.374C10.1164 24.4997 7.49177 26.1498 4.49902 27.5195C4.41271 27.5584 4.35277 27.5686 4.31445 27.5664C4.30378 27.5656 4.29326 27.5633 4.28418 27.5576C4.27488 27.5518 4.26701 27.5436 4.26172 27.5342C4.25651 27.5248 4.25404 27.5144 4.25391 27.5039C4.25377 27.4934 4.25585 27.4829 4.26074 27.4736C4.39497 27.2221 4.54943 26.9686 4.72363 26.7139C5.38925 25.7377 6.10189 24.7996 6.86133 23.8994C7.23623 23.4553 7.95678 22.6894 9.02539 21.5996C9.67363 20.9381 10.5319 20.1998 11.6006 19.3848C11.7657 19.2585 11.9486 19.1438 12.1289 19.0264C12.3051 18.9116 12.4809 18.7922 12.6113 18.6611L12.6104 18.6602C12.634 18.6366 12.6524 18.6084 12.6611 18.5762C12.6656 18.5596 12.668 18.5423 12.668 18.5254L12.6611 18.4746L12.6406 18.4277L12.6094 18.3887L12.5693 18.3584C12.5546 18.3501 12.539 18.3431 12.5225 18.3389H12.5205C12.4322 18.3177 12.3474 18.3092 12.2686 18.3174H12.2676C10.7681 18.4868 9.27517 18.5004 7.79004 18.3584C5.14001 18.105 2.60341 17.5572 0.179687 16.7168H0.178711C0.164879 16.7121 0.152301 16.7031 0.143555 16.6914C0.134884 16.6798 0.129533 16.6658 0.128906 16.6514C0.128312 16.6368 0.132854 16.6217 0.140625 16.6094C0.148385 16.5972 0.159617 16.5877 0.172852 16.582L0.173828 16.5811C0.268531 16.5392 0.362604 16.5066 0.456055 16.4834C2.18671 16.0586 3.94302 15.7593 5.72461 15.584C7.14477 15.4445 8.84761 15.4748 10.834 15.6768C11.1196 15.7056 11.3817 15.755 11.6455 15.8057C11.7768 15.8309 11.9091 15.8565 12.0439 15.8799L12.459 15.9404H12.4619C12.5033 15.9443 12.5448 15.9348 12.5801 15.9131C12.6155 15.8912 12.6431 15.8582 12.6582 15.8193C12.6658 15.7999 12.6699 15.7794 12.6709 15.7588L12.6641 15.6982L12.6377 15.6416C12.6262 15.6249 12.612 15.6101 12.5957 15.5977V15.5967L12.5937 15.5957L12.0312 15.1738C11.4522 14.7285 10.8229 14.214 10.1436 13.6299C9.85221 13.379 9.61101 13.1587 9.41895 12.9697L9.24316 12.791L8.54883 12.0791C8.31517 11.8406 8.08855 11.6053 7.89941 11.3857C7.30061 10.6896 6.8494 10.1553 6.5459 9.78223C6.16509 9.3142 5.58999 8.53022 4.81836 7.42969C4.1305 6.45104 3.48893 5.41058 2.89453 4.30859C2.89185 4.30315 2.89021 4.29709 2.89062 4.29102C2.89108 4.28469 2.89377 4.2786 2.89746 4.27344C2.9013 4.2682 2.90706 4.26411 2.91309 4.26172C2.91875 4.25951 2.92466 4.25883 2.93066 4.25977C2.97812 4.26885 3.05487 4.28986 3.13281 4.31641C3.17262 4.32996 3.21023 4.34303 3.24219 4.35645L3.31934 4.39453C4.88424 5.31589 6.05592 6.04366 6.83496 6.57813C8.29642 7.58217 9.6689 8.70175 10.9521 9.93652C12.0713 11.0124 12.9839 12.0619 13.8096 13.2676C13.8329 13.3023 13.8667 13.3287 13.9062 13.3428C13.9464 13.357 13.99 13.3573 14.0303 13.3447C14.0706 13.3321 14.1061 13.3072 14.1309 13.2734C14.1556 13.2398 14.1687 13.1991 14.1689 13.1572V13.1553C14.1685 13.0971 14.166 13.0404 14.1602 12.9854L14.1348 12.8262L13.9619 11.9971C13.9186 11.7685 13.8897 11.587 13.874 11.4531C13.7292 10.218 13.6422 9.01675 13.6133 7.84961C13.5688 6.00114 13.69 4.17045 13.9766 2.35742L14.1094 1.58105C14.1104 1.5755 14.1128 1.57001 14.1162 1.56543C14.1197 1.56081 14.1246 1.55639 14.1299 1.55371C14.1351 1.55114 14.1414 1.54984 14.1475 1.5498C14.1531 1.54982 14.1589 1.55044 14.1641 1.55273V1.55371C14.2122 1.57756 14.2664 1.63254 14.3154 1.74512C15.5525 4.58384 16.3573 7.37815 16.7324 10.1279C16.9671 11.8451 16.9536 13.7152 16.5547 15.4336L16.4697 15.7754C16.3885 16.0824 16.2809 16.3978 16.2256 16.6943C16.1759 16.9608 16.1634 17.2311 16.2402 17.5107L16.2793 17.6318C16.6313 18.5926 17.0004 19.7303 17.3877 21.0449H17.3887C17.3993 21.0804 17.4194 21.1124 17.4473 21.1367C17.4752 21.1611 17.5099 21.1771 17.5469 21.1826C17.5839 21.1881 17.622 21.1837 17.6562 21.168C17.6905 21.1523 17.7193 21.1266 17.7393 21.0947L17.7383 21.0938C17.7915 21.0113 17.8345 20.9182 17.8662 20.8145V20.8135C18.0692 20.1487 18.2458 19.5295 18.3955 18.9561C19.3332 15.3501 20.0879 11.767 20.6602 8.20703C20.9068 6.6794 21.3374 4.72505 21.4521 3.07813C21.4796 2.67605 21.4526 2.05612 21.374 1.22461C21.3409 0.877102 21.4035 0.627598 21.5381 0.457031C21.6555 0.308299 21.8417 0.201748 22.1133 0.149414L22.2354 0.129883Z" fill="currentColor" stroke="currentColor" stroke-width="0.258429"/>
</g>
<g transform="translate(32.1048, 55.6332)">
<path d="M3.24023 0.269531C3.54667 0.504666 3.88749 0.680284 4.26172 0.796875C5.81601 1.28346 7.59411 1.71753 9.31055 1.77344C9.53783 1.78077 9.72952 1.82955 9.88867 1.91504L9.89063 1.91602C9.91022 1.92604 9.92764 1.9406 9.94238 1.95801L9.94336 1.95898C10.0685 2.10375 10.1355 2.25382 10.1514 2.41113C10.1673 2.56949 10.1327 2.74581 10.0381 2.94238C9.45864 4.14283 9.10744 5.1934 8.79004 6.5293C8.48799 7.80332 8.03354 9.62115 7.7373 11.1152C7.2312 13.6685 6.81779 16.1524 6.49707 18.5664V18.5674C6.4799 18.6976 6.40161 18.8281 6.2373 18.957C6.17015 19.0097 6.03639 19.0377 5.79297 18.9873C5.56952 18.9402 4.02925 18.6802 1.18066 18.208C1.11606 18.1971 1.02844 18.1788 0.917969 18.1533L0.517578 18.0547C0.342853 18.0094 0.240915 17.9356 0.186523 17.8467C0.1318 17.757 0.110508 17.628 0.147461 17.4443C0.264848 16.8586 0.392532 16.2992 0.522461 15.7236C0.587404 15.436 0.652656 15.1441 0.717773 14.8438L0.911133 13.9121C1.42624 11.2871 1.87537 8.96028 2.25781 6.93262C2.27548 6.83848 2.28995 6.73715 2.30273 6.63281L2.37305 5.99805C2.38605 5.89484 2.40099 5.79491 2.41895 5.70117C2.63307 4.58583 2.67899 3.71575 2.66602 2.58984L2.6377 1.36035C2.63716 1.33499 2.63832 1.308 2.64258 1.28125C2.7054 0.940293 2.85168 0.643942 3.08105 0.389648H3.08203C3.12145 0.345816 3.15845 0.286854 3.19141 0.222656L3.24023 0.269531Z" fill="currentColor" stroke="currentColor" stroke-width="0.258429"/>
</g>
</svg>
